<mxfile host="app.diagrams.net" modified="2021-04-11T14:36:17.708Z" agent="5.0 (Windows NT 10.0; Win64; x64) AppleWebKit/537.36 (KHTML, like Gecko) Chrome/89.0.4389.114 Safari/537.36 Edg/89.0.774.75" etag="_2SDajDtpVhJ1zHsEw8r" version="14.5.10" type="github">
  <diagram id="R2lEEEUBdFMjLlhIrx00" name="Page-1">
    <mxGraphModel dx="1869" dy="1697" grid="1" gridSize="10" guides="1" tooltips="1" connect="1" arrows="1" fold="1" page="1" pageScale="1" pageWidth="850" pageHeight="1100" math="0" shadow="0" extFonts="Permanent Marker^https://fonts.googleapis.com/css?family=Permanent+Marker">
      <root>
        <mxCell id="0" />
        <mxCell id="1" parent="0" />
        <mxCell id="Igahii2jevdIXd1uo-k0-4" value="" style="edgeStyle=entityRelationEdgeStyle;fontSize=12;html=1;endArrow=ERmandOne;entryX=0;entryY=0.5;entryDx=0;entryDy=0;" edge="1" parent="1" target="Igahii2jevdIXd1uo-k0-7">
          <mxGeometry width="100" height="100" relative="1" as="geometry">
            <mxPoint x="200" y="250" as="sourcePoint" />
            <mxPoint x="290" y="210" as="targetPoint" />
          </mxGeometry>
        </mxCell>
        <mxCell id="Igahii2jevdIXd1uo-k0-5" value="" style="edgeStyle=entityRelationEdgeStyle;fontSize=12;html=1;endArrow=ERmandOne;" edge="1" parent="1">
          <mxGeometry width="100" height="100" relative="1" as="geometry">
            <mxPoint x="200" y="250" as="sourcePoint" />
            <mxPoint x="290" y="250" as="targetPoint" />
          </mxGeometry>
        </mxCell>
        <mxCell id="Igahii2jevdIXd1uo-k0-6" value="" style="edgeStyle=entityRelationEdgeStyle;fontSize=12;html=1;endArrow=ERmandOne;" edge="1" parent="1">
          <mxGeometry width="100" height="100" relative="1" as="geometry">
            <mxPoint x="200" y="250" as="sourcePoint" />
            <mxPoint x="290" y="300" as="targetPoint" />
          </mxGeometry>
        </mxCell>
        <mxCell id="Igahii2jevdIXd1uo-k0-7" value="&lt;span style=&quot;border-bottom: 1px dotted&quot;&gt;ID_PEGAWAI&lt;/span&gt;" style="ellipse;whiteSpace=wrap;html=1;align=center;" vertex="1" parent="1">
          <mxGeometry x="290" y="180" width="100" height="40" as="geometry" />
        </mxCell>
        <mxCell id="Igahii2jevdIXd1uo-k0-8" value="&lt;span style=&quot;border-bottom: 1px dotted&quot;&gt;NAMA_PEGAWAI&lt;/span&gt;" style="ellipse;whiteSpace=wrap;html=1;align=center;" vertex="1" parent="1">
          <mxGeometry x="290" y="230" width="100" height="40" as="geometry" />
        </mxCell>
        <mxCell id="Igahii2jevdIXd1uo-k0-9" value="&lt;span style=&quot;border-bottom: 1px dotted&quot;&gt;DEPARTEMEN&lt;/span&gt;" style="ellipse;whiteSpace=wrap;html=1;align=center;" vertex="1" parent="1">
          <mxGeometry x="290" y="280" width="100" height="40" as="geometry" />
        </mxCell>
        <mxCell id="Igahii2jevdIXd1uo-k0-11" value="" style="edgeStyle=entityRelationEdgeStyle;fontSize=12;html=1;endArrow=ERzeroToMany;endFill=1;entryX=0;entryY=0.5;entryDx=0;entryDy=0;" edge="1" parent="1" target="Igahii2jevdIXd1uo-k0-12">
          <mxGeometry width="100" height="100" relative="1" as="geometry">
            <mxPoint x="120" y="230" as="sourcePoint" />
            <mxPoint x="160" y="110" as="targetPoint" />
          </mxGeometry>
        </mxCell>
        <mxCell id="Igahii2jevdIXd1uo-k0-12" value="PASIEN" style="rounded=1;arcSize=10;whiteSpace=wrap;html=1;align=center;" vertex="1" parent="1">
          <mxGeometry x="180" y="90" width="100" height="40" as="geometry" />
        </mxCell>
        <mxCell id="Igahii2jevdIXd1uo-k0-13" value="PEGAWAI" style="rounded=1;arcSize=10;whiteSpace=wrap;html=1;align=center;" vertex="1" parent="1">
          <mxGeometry x="100" y="230" width="100" height="40" as="geometry" />
        </mxCell>
        <mxCell id="Igahii2jevdIXd1uo-k0-14" value="" style="edgeStyle=entityRelationEdgeStyle;fontSize=12;html=1;endArrow=ERzeroToOne;endFill=1;" edge="1" parent="1" target="Igahii2jevdIXd1uo-k0-15">
          <mxGeometry width="100" height="100" relative="1" as="geometry">
            <mxPoint x="280" y="110" as="sourcePoint" />
            <mxPoint x="380" y="50" as="targetPoint" />
          </mxGeometry>
        </mxCell>
        <mxCell id="Igahii2jevdIXd1uo-k0-15" value="ID_PASIEN" style="ellipse;whiteSpace=wrap;html=1;align=center;" vertex="1" parent="1">
          <mxGeometry x="350" y="30" width="100" height="40" as="geometry" />
        </mxCell>
        <mxCell id="Igahii2jevdIXd1uo-k0-16" value="NAMA_PASIEN" style="ellipse;whiteSpace=wrap;html=1;align=center;" vertex="1" parent="1">
          <mxGeometry x="350" y="80" width="100" height="40" as="geometry" />
        </mxCell>
        <mxCell id="Igahii2jevdIXd1uo-k0-17" value="GENDER" style="ellipse;whiteSpace=wrap;html=1;align=center;" vertex="1" parent="1">
          <mxGeometry x="350" y="130" width="100" height="40" as="geometry" />
        </mxCell>
        <mxCell id="Igahii2jevdIXd1uo-k0-18" value="" style="edgeStyle=entityRelationEdgeStyle;fontSize=12;html=1;endArrow=ERmandOne;entryX=0;entryY=0.5;entryDx=0;entryDy=0;" edge="1" parent="1" target="Igahii2jevdIXd1uo-k0-16">
          <mxGeometry width="100" height="100" relative="1" as="geometry">
            <mxPoint x="280" y="110" as="sourcePoint" />
            <mxPoint x="380" y="10" as="targetPoint" />
          </mxGeometry>
        </mxCell>
        <mxCell id="Igahii2jevdIXd1uo-k0-20" value="TANGGAL_LAHIR" style="ellipse;whiteSpace=wrap;html=1;align=center;" vertex="1" parent="1">
          <mxGeometry x="350" y="-20" width="100" height="40" as="geometry" />
        </mxCell>
        <mxCell id="Igahii2jevdIXd1uo-k0-21" value="USIA" style="ellipse;whiteSpace=wrap;html=1;align=center;" vertex="1" parent="1">
          <mxGeometry x="350" y="-70" width="100" height="40" as="geometry" />
        </mxCell>
        <mxCell id="Igahii2jevdIXd1uo-k0-22" value="NO_TELPN" style="ellipse;whiteSpace=wrap;html=1;align=center;" vertex="1" parent="1">
          <mxGeometry x="350" y="-120" width="100" height="40" as="geometry" />
        </mxCell>
        <mxCell id="Igahii2jevdIXd1uo-k0-23" value="" style="edgeStyle=entityRelationEdgeStyle;fontSize=12;html=1;endArrow=ERoneToMany;entryX=0;entryY=0.5;entryDx=0;entryDy=0;" edge="1" parent="1" target="Igahii2jevdIXd1uo-k0-17">
          <mxGeometry width="100" height="100" relative="1" as="geometry">
            <mxPoint x="280" y="110" as="sourcePoint" />
            <mxPoint x="380" y="10" as="targetPoint" />
          </mxGeometry>
        </mxCell>
        <mxCell id="Igahii2jevdIXd1uo-k0-24" value="" style="edgeStyle=entityRelationEdgeStyle;fontSize=12;html=1;endArrow=ERmandOne;" edge="1" parent="1">
          <mxGeometry width="100" height="100" relative="1" as="geometry">
            <mxPoint x="280" y="110" as="sourcePoint" />
            <mxPoint x="350" as="targetPoint" />
          </mxGeometry>
        </mxCell>
        <mxCell id="Igahii2jevdIXd1uo-k0-25" value="" style="edgeStyle=entityRelationEdgeStyle;fontSize=12;html=1;endArrow=ERmandOne;entryX=0;entryY=0.5;entryDx=0;entryDy=0;" edge="1" parent="1" target="Igahii2jevdIXd1uo-k0-21">
          <mxGeometry width="100" height="100" relative="1" as="geometry">
            <mxPoint x="280" y="110" as="sourcePoint" />
            <mxPoint x="380" y="10" as="targetPoint" />
          </mxGeometry>
        </mxCell>
        <mxCell id="Igahii2jevdIXd1uo-k0-26" value="" style="edgeStyle=entityRelationEdgeStyle;fontSize=12;html=1;endArrow=ERmandOne;entryX=0;entryY=0.5;entryDx=0;entryDy=0;" edge="1" parent="1" target="Igahii2jevdIXd1uo-k0-22">
          <mxGeometry width="100" height="100" relative="1" as="geometry">
            <mxPoint x="280" y="110" as="sourcePoint" />
            <mxPoint x="380" y="10" as="targetPoint" />
          </mxGeometry>
        </mxCell>
        <mxCell id="Igahii2jevdIXd1uo-k0-27" value="ASURANSI" style="ellipse;whiteSpace=wrap;html=1;align=center;" vertex="1" parent="1">
          <mxGeometry x="350" y="-170" width="100" height="40" as="geometry" />
        </mxCell>
        <mxCell id="Igahii2jevdIXd1uo-k0-29" value="" style="edgeStyle=entityRelationEdgeStyle;fontSize=12;html=1;endArrow=ERoneToMany;entryX=0;entryY=0.5;entryDx=0;entryDy=0;" edge="1" parent="1" target="Igahii2jevdIXd1uo-k0-27">
          <mxGeometry width="100" height="100" relative="1" as="geometry">
            <mxPoint x="280" y="110" as="sourcePoint" />
            <mxPoint x="380" y="10" as="targetPoint" />
          </mxGeometry>
        </mxCell>
        <mxCell id="Igahii2jevdIXd1uo-k0-30" value="" style="edgeStyle=entityRelationEdgeStyle;fontSize=12;html=1;endArrow=ERzeroToOne;endFill=1;entryX=1;entryY=0.5;entryDx=0;entryDy=0;startArrow=none;" edge="1" parent="1" source="Igahii2jevdIXd1uo-k0-53" target="Igahii2jevdIXd1uo-k0-31">
          <mxGeometry width="100" height="100" relative="1" as="geometry">
            <mxPoint x="210" y="90" as="sourcePoint" />
            <mxPoint x="-10" y="-40" as="targetPoint" />
          </mxGeometry>
        </mxCell>
        <mxCell id="Igahii2jevdIXd1uo-k0-31" value="JANJI_KONSUL" style="whiteSpace=wrap;html=1;align=center;" vertex="1" parent="1">
          <mxGeometry x="-10" y="-60" width="100" height="40" as="geometry" />
        </mxCell>
        <mxCell id="Igahii2jevdIXd1uo-k0-37" value="" style="edgeStyle=entityRelationEdgeStyle;fontSize=12;html=1;endArrow=ERoneToMany;" edge="1" parent="1">
          <mxGeometry width="100" height="100" relative="1" as="geometry">
            <mxPoint x="-1" y="-60" as="sourcePoint" />
            <mxPoint x="60" y="-230" as="targetPoint" />
          </mxGeometry>
        </mxCell>
        <mxCell id="Igahii2jevdIXd1uo-k0-38" value="ID_PASIEN" style="ellipse;whiteSpace=wrap;html=1;align=center;" vertex="1" parent="1">
          <mxGeometry x="60" y="-250" width="100" height="40" as="geometry" />
        </mxCell>
        <mxCell id="Igahii2jevdIXd1uo-k0-39" value="" style="edgeStyle=entityRelationEdgeStyle;fontSize=12;html=1;endArrow=ERoneToMany;" edge="1" parent="1" target="Igahii2jevdIXd1uo-k0-40">
          <mxGeometry width="100" height="100" relative="1" as="geometry">
            <mxPoint y="-60" as="sourcePoint" />
            <mxPoint x="60" y="-170" as="targetPoint" />
          </mxGeometry>
        </mxCell>
        <mxCell id="Igahii2jevdIXd1uo-k0-40" value="RUANG" style="ellipse;whiteSpace=wrap;html=1;align=center;" vertex="1" parent="1">
          <mxGeometry x="60" y="-190" width="100" height="40" as="geometry" />
        </mxCell>
        <mxCell id="Igahii2jevdIXd1uo-k0-41" value="" style="edgeStyle=entityRelationEdgeStyle;fontSize=12;html=1;endArrow=ERmandOne;" edge="1" parent="1" target="Igahii2jevdIXd1uo-k0-42">
          <mxGeometry width="100" height="100" relative="1" as="geometry">
            <mxPoint y="-60" as="sourcePoint" />
            <mxPoint x="60" y="-120" as="targetPoint" />
          </mxGeometry>
        </mxCell>
        <mxCell id="Igahii2jevdIXd1uo-k0-42" value="KETERANGAN" style="ellipse;whiteSpace=wrap;html=1;align=center;" vertex="1" parent="1">
          <mxGeometry x="60" y="-140" width="100" height="40" as="geometry" />
        </mxCell>
        <mxCell id="Igahii2jevdIXd1uo-k0-43" value="" style="edgeStyle=entityRelationEdgeStyle;fontSize=12;html=1;endArrow=ERoneToMany;" edge="1" parent="1" target="Igahii2jevdIXd1uo-k0-44">
          <mxGeometry width="100" height="100" relative="1" as="geometry">
            <mxPoint y="-60" as="sourcePoint" />
            <mxPoint x="60" y="-300" as="targetPoint" />
          </mxGeometry>
        </mxCell>
        <mxCell id="Igahii2jevdIXd1uo-k0-44" value="WAKTU" style="ellipse;whiteSpace=wrap;html=1;align=center;" vertex="1" parent="1">
          <mxGeometry x="60" y="-320" width="100" height="40" as="geometry" />
        </mxCell>
        <mxCell id="Igahii2jevdIXd1uo-k0-45" value="" style="edgeStyle=entityRelationEdgeStyle;fontSize=12;html=1;endArrow=ERoneToMany;" edge="1" parent="1" target="Igahii2jevdIXd1uo-k0-46">
          <mxGeometry width="100" height="100" relative="1" as="geometry">
            <mxPoint x="160" y="-300" as="sourcePoint" />
            <mxPoint x="240" y="-350" as="targetPoint" />
          </mxGeometry>
        </mxCell>
        <mxCell id="Igahii2jevdIXd1uo-k0-46" value="TANGGAL" style="ellipse;whiteSpace=wrap;html=1;align=center;" vertex="1" parent="1">
          <mxGeometry x="220" y="-360" width="100" height="40" as="geometry" />
        </mxCell>
        <mxCell id="Igahii2jevdIXd1uo-k0-47" value="" style="edgeStyle=entityRelationEdgeStyle;fontSize=12;html=1;endArrow=ERoneToMany;" edge="1" parent="1" target="Igahii2jevdIXd1uo-k0-48">
          <mxGeometry width="100" height="100" relative="1" as="geometry">
            <mxPoint x="160" y="-300" as="sourcePoint" />
            <mxPoint x="220" y="-270" as="targetPoint" />
          </mxGeometry>
        </mxCell>
        <mxCell id="Igahii2jevdIXd1uo-k0-48" value="BULAN" style="ellipse;whiteSpace=wrap;html=1;align=center;" vertex="1" parent="1">
          <mxGeometry x="220" y="-290" width="100" height="40" as="geometry" />
        </mxCell>
        <mxCell id="Igahii2jevdIXd1uo-k0-49" value="" style="edgeStyle=entityRelationEdgeStyle;fontSize=12;html=1;endArrow=ERmandOne;" edge="1" parent="1" target="Igahii2jevdIXd1uo-k0-50">
          <mxGeometry width="100" height="100" relative="1" as="geometry">
            <mxPoint x="160" y="-300" as="sourcePoint" />
            <mxPoint x="220" y="-400" as="targetPoint" />
          </mxGeometry>
        </mxCell>
        <mxCell id="Igahii2jevdIXd1uo-k0-50" value="TAHUN" style="ellipse;whiteSpace=wrap;html=1;align=center;" vertex="1" parent="1">
          <mxGeometry x="220" y="-420" width="100" height="40" as="geometry" />
        </mxCell>
        <mxCell id="Igahii2jevdIXd1uo-k0-51" value="" style="edgeStyle=entityRelationEdgeStyle;fontSize=12;html=1;endArrow=ERoneToMany;" edge="1" parent="1" target="Igahii2jevdIXd1uo-k0-52">
          <mxGeometry width="100" height="100" relative="1" as="geometry">
            <mxPoint x="160" y="-300" as="sourcePoint" />
            <mxPoint x="220" y="-470" as="targetPoint" />
          </mxGeometry>
        </mxCell>
        <mxCell id="Igahii2jevdIXd1uo-k0-52" value="JAM" style="ellipse;whiteSpace=wrap;html=1;align=center;" vertex="1" parent="1">
          <mxGeometry x="220" y="-480" width="100" height="40" as="geometry" />
        </mxCell>
        <mxCell id="Igahii2jevdIXd1uo-k0-53" value="MEMILIKI" style="shape=rhombus;perimeter=rhombusPerimeter;whiteSpace=wrap;html=1;align=center;" vertex="1" parent="1">
          <mxGeometry x="160" y="-40" width="80" height="40" as="geometry" />
        </mxCell>
        <mxCell id="Igahii2jevdIXd1uo-k0-54" value="" style="edgeStyle=entityRelationEdgeStyle;fontSize=12;html=1;endArrow=none;endFill=1;exitX=1;exitY=0.5;exitDx=0;exitDy=0;" edge="1" parent="1">
          <mxGeometry width="100" height="100" relative="1" as="geometry">
            <mxPoint x="240" y="-20" as="sourcePoint" />
            <mxPoint x="270" y="90" as="targetPoint" />
          </mxGeometry>
        </mxCell>
        <mxCell id="Igahii2jevdIXd1uo-k0-57" value="MEMILIKI" style="shape=rhombus;perimeter=rhombusPerimeter;whiteSpace=wrap;html=1;align=center;" vertex="1" parent="1">
          <mxGeometry x="95" y="150" width="110" height="50" as="geometry" />
        </mxCell>
        <mxCell id="Igahii2jevdIXd1uo-k0-59" value="Text" style="text;html=1;align=center;verticalAlign=middle;resizable=0;points=[];autosize=1;strokeColor=none;" vertex="1" parent="1">
          <mxGeometry x="1190" y="-170" width="40" height="20" as="geometry" />
        </mxCell>
      </root>
    </mxGraphModel>
  </diagram>
</mxfile>
